<?xml version="1.0" encoding="UTF-8" standalone="no"?>
<!-- Created with Inkscape (http://www.inkscape.org/) -->

<svg
   xmlns:dc="http://purl.org/dc/elements/1.1/"
   xmlns:cc="http://creativecommons.org/ns#"
   xmlns:rdf="http://www.w3.org/1999/02/22-rdf-syntax-ns#"
   xmlns:svg="http://www.w3.org/2000/svg"
   xmlns="http://www.w3.org/2000/svg"
   xmlns:sodipodi="http://sodipodi.sourceforge.net/DTD/sodipodi-0.dtd"
   xmlns:inkscape="http://www.inkscape.org/namespaces/inkscape"
   width="301.77451"
   height="101.99999"
   viewBox="0 0 79.844504 26.987498"
   version="1.1"
   id="svg1760"
   inkscape:version="0.92.0 r15299"
   sodipodi:docname="universite de lille.svg">
  <defs
     id="defs1754" />
  <sodipodi:namedview
     id="base"
     pagecolor="#ffffff"
     bordercolor="#666666"
     borderopacity="1.0"
     inkscape:pageopacity="0.0"
     inkscape:pageshadow="2"
     inkscape:zoom="2.9922512"
     inkscape:cx="149.88715"
     inkscape:cy="49.999988"
     inkscape:document-units="mm"
     inkscape:current-layer="layer1"
     showgrid="false"
     fit-margin-top="0"
     fit-margin-left="0"
     fit-margin-right="0"
     fit-margin-bottom="0"
     units="px"
     inkscape:window-width="1280"
     inkscape:window-height="744"
     inkscape:window-x="-4"
     inkscape:window-y="-4"
     inkscape:window-maximized="1" />
  <metadata
     id="metadata1757">
    <rdf:RDF>
      <cc:Work
         rdf:about="">
        <dc:format>image/svg+xml</dc:format>
        <dc:type
           rdf:resource="http://purl.org/dc/dcmitype/StillImage" />
        <dc:title></dc:title>
      </cc:Work>
    </rdf:RDF>
  </metadata>
  <g
     inkscape:label="Layer 1"
     inkscape:groupmode="layer"
     id="layer1"
     transform="translate(43.437403,-320.28334)">
    <g
       id="g1880"
       transform="translate(0.26458293,-0.26457413)">
      <path
         id="path1762"
         d="m -20.865799,320.8125 h -22.571604 v 15.5919 c 0,6.49287 4.85775,10.86643 11.263312,10.86643 1.72773,0 3.344334,-0.32014 4.786313,-0.91281 v 0.003 l 2.690812,-1.12448 3.831167,1.74889 z m -11.300354,20.68777 -4.992688,-2.27806 v -13.38792 h 4.992688 z m 6.469062,-4.87892 v 2.65642 l -4.873625,2.22515 v -2.65907 z"
         inkscape:connector-curvature="0"
         style="fill:#ae2573;stroke-width:0.26458332" />
      <path
         id="path1764"
         d="M 3.5711172,331.14448 C 2.9784506,329.97237 2.1979298,327.9536 2.0365339,325.85281 H 0.80622144 c 0,0 0.29104166,3.78354 2.12724996,6.30767 h 1.2779375 c 1.8335625,-2.52413 2.1246041,-6.30767 2.1246041,-6.30767 H 5.1083464 c -0.1613958,2.10079 -0.9419167,4.12221 -1.5372292,5.29167 M 28.6642,323.32869 h -1.262062 v 2.52148 h -0.767292 v 0.96308 h 0.767292 v 3.53748 c 0,0.96837 0.502708,1.8071 1.754187,1.8071 h 0.672042 V 331.036 h -0.455083 c -0.529167,0 -0.709084,-0.25929 -0.709084,-0.762 v -3.46075 h 1.164167 v -0.96308 H 28.6642 Z m -40.147874,5.79966 c 0,1.17211 -0.722313,1.92882 -1.8415,1.92882 -1.119188,0 -1.8415,-0.75671 -1.8415,-1.92882 v -5.79437 h -1.288521 v 5.85787 c 0,0.86255 0.3175,1.63777 0.896937,2.18546 0.568855,0.53711 1.359959,0.83344 2.233084,0.83079 0.711729,0 1.370541,-0.19579 1.897062,-0.56091 l 1.230313,0.56091 v -8.87412 h -1.285875 z m 7.4189163,-2.74373 c -0.3677708,-0.35454 -0.98425,-0.62706 -1.8891249,-0.62706 -0.5953125,0 -1.143,0.22754 -1.4869584,0.47096 l -1.0318749,-0.47096 v 6.40027 h 1.2620624 v -3.82058 c 0,-0.97631 0.5529792,-1.397 1.2567709,-1.397 0.7037916,0 1.2567708,0.42069 1.2594166,1.397 v 3.82058 h 1.2620625 v -4.00579 c 0,-0.70379 -0.1481667,-1.29646 -0.6323542,-1.76742 M 14.8212,328.34254 c 0,-0.97896 0.55298,-1.397 1.256771,-1.397 0.246063,0 0.473604,0.0503 0.66675,0.15875 l 0.669396,-1.08479 c -0.346604,-0.1561 -0.788458,-0.25665 -1.336146,-0.25665 -0.595312,0 -1.143,0.22755 -1.489604,0.47096 l -1.029229,-0.47096 v 6.40027 H 14.8212 Z M -0.59077854,325.85281 H -1.8501952 v 6.30767 h 1.25941666 z m 0,-2.52412 H -1.8501952 v 1.25941 h 1.25941666 z m 24.57979154,8.82914 h 1.259416 v -6.30766 h -1.259416 z m 0,-7.56708 h 1.259416 v -1.26206 h -1.259416 z m -19.5024374,19.8411 h 1.2594166 v -6.30766 H 4.4865756 Z m 0,-7.57237 h 1.2594166 v -1.26206 H 4.4865756 Z m 3.9211249,-8.37406 c 0.00529,-0.18521 0.015875,-0.33602 0.039687,-0.47096 0.023813,-0.13229 0.060854,-0.24871 0.1243542,-0.39423 0.1852083,-0.44186 0.66675,-0.71438 1.2594166,-0.71438 0.4233337,0 0.9816047,0.0767 1.2356037,0.4445 0.05556,0.082 0.142875,0.29898 0.06615,0.5424 -0.0926,0.29104 -0.383647,0.55298 -0.867834,0.73025 -0.6455833,0.23812 -1.381125,0.35719 -1.8520833,0.40746 h -0.00529 z m 1.5822083,3.76502 c 0.5397502,0 0.9683752,-0.0794 1.3493752,-0.24871 0.338666,-0.15346 0.648229,-0.381 1.002771,-0.73554 l -0.748771,-0.70909 c -0.224896,0.22755 -0.4445,0.37571 -0.690563,0.46567 -0.243416,0.0926 -0.515937,0.13229 -0.889,0.13229 -0.7778747,0 -1.3149788,-0.39158 -1.518708,-1.10596 v -0.003 h 0.00265 c 0.6297084,-0.0847 1.785937,-0.18521 2.754312,-0.70909 0.470959,-0.25664 0.817563,-0.55297 0.976313,-0.98425 0.124354,-0.33602 0.177271,-0.7567 0.07144,-1.1377 -0.142875,-0.51859 -0.386291,-0.82286 -0.762,-1.07421 -0.425979,-0.28575 -1.016,-0.381 -1.7092078,-0.381 -0.4206875,0 -0.8043333,0.0741 -1.1350625,0.21696 -0.3254375,0.14023 -0.6111875,0.35718 -0.8360833,0.63235 -0.2275417,0.27781 -0.3995208,0.61913 -0.5159375,1.016 -0.1164167,0.40217 -0.1772708,0.86254 -0.1772708,1.37319 0,1.13241 0.2778125,1.98437 0.8228541,2.53206 0.47625,0.4789 1.1509375,0.71967 2.0028958,0.71967 m -18.7721872,9.05404 h -0.00265 v -0.54504 c 0.00529,-0.18521 0.015875,-0.33602 0.037042,-0.46832 0.023813,-0.13229 0.060854,-0.2487 0.1243542,-0.39687 0.1852083,-0.44185 0.66675,-0.71438 1.2594166,-0.71438 0.4233333,0 0.9816042,0.0767 1.2356042,0.44715 0.055562,0.082 0.142875,0.29898 0.066146,0.53975 -0.092604,0.29369 -0.3836458,0.55298 -0.8651875,0.73025 -0.6455833,0.23813 -1.381125,0.35719 -1.8547291,0.40746 m 2.8389791,0.30692 c 0.4709583,-0.25665 0.8175625,-0.55298 0.9763125,-0.98425 0.1243541,-0.33603 0.1772708,-0.75671 0.071438,-1.13771 -0.142875,-0.51859 -0.3862917,-0.82286 -0.762,-1.07421 -0.428625,-0.28575 -1.016,-0.381 -1.7092083,-0.381 -0.4206875,0 -0.8043333,0.0741 -1.1350625,0.21696 -0.3254375,0.14023 -0.6111875,0.35718 -0.8360833,0.63235 -0.2275417,0.27517 -0.3995209,0.61913 -0.5159375,1.01865 -0.1164167,0.40216 -0.1772712,0.86254 -0.1772712,1.37054 0,1.13242 0.275167,1.98437 0.8228545,2.53206 0.47625,0.4789 1.1509375,0.71967 2.0028958,0.71967 0.53975,0 0.968375,-0.0794 1.349375,-0.24871 0.3386667,-0.15081 0.650875,-0.37835 1.0027708,-0.73554 l -0.7487708,-0.70909 c -0.2248958,0.22755 -0.4445,0.37571 -0.6905625,0.46832 -0.2434167,0.09 -0.5159375,0.13229 -0.889,0.12964 -0.777875,0 -1.3149791,-0.39158 -1.5160625,-1.10331 l -0.00265,-0.005 h 0.00529 c 0.6297083,-0.0847 1.7832916,-0.18521 2.7516666,-0.70908 m 21.4735831,-0.30692 h -0.0026 v -0.54504 c 0.0053,-0.18521 0.01588,-0.33602 0.03704,-0.46832 0.02381,-0.13229 0.06085,-0.2487 0.124354,-0.39687 0.185208,-0.44185 0.66675,-0.71438 1.259416,-0.71438 0.423334,0 0.981605,0.0767 1.235605,0.44715 0.05556,0.082 0.142875,0.29898 0.06614,0.53975 -0.0926,0.29369 -0.383645,0.55298 -0.867833,0.73025 -0.645583,0.23813 -1.381125,0.35719 -1.852083,0.40746 m 2.838979,0.30692 c 0.470958,-0.25665 0.817562,-0.55298 0.976312,-0.98425 0.124355,-0.33603 0.177271,-0.75671 0.07144,-1.13771 -0.142875,-0.51859 -0.386292,-0.82021 -0.762,-1.07421 -0.428625,-0.28575 -1.016,-0.381 -1.709208,-0.381 -0.420688,0 -0.801688,0.0741 -1.135063,0.21696 -0.325437,0.14023 -0.611187,0.35718 -0.836083,0.63235 -0.227542,0.27781 -0.399521,0.61913 -0.515938,1.01865 -0.116416,0.40216 -0.177271,0.86254 -0.177271,1.37054 0,1.13242 0.275167,1.98437 0.822855,2.53206 0.47625,0.4789 1.150937,0.71967 2.002895,0.71967 0.53975,0 0.968375,-0.0794 1.349375,-0.24871 0.341313,-0.15346 0.64823,-0.37835 1.002771,-0.73554 l -0.748771,-0.70909 c -0.224895,0.22755 -0.4445,0.37571 -0.690562,0.46832 -0.243417,0.09 -0.515938,0.13229 -0.889,0.12964 -0.777875,0 -1.317625,-0.39158 -1.518708,-1.10331 v -0.005 h 0.0053 c 0.629709,-0.0847 1.783292,-0.18521 2.751667,-0.70908 m 13.562541,-12.58359 v -0.54239 c 0.0053,-0.18521 0.01588,-0.33602 0.03704,-0.47096 0.02381,-0.13229 0.06085,-0.24871 0.124354,-0.39688 0.185209,-0.44185 0.66675,-0.71437 1.259417,-0.71437 0.423333,0 0.981604,0.0767 1.235604,0.44714 0.05556,0.082 0.142875,0.29898 0.06615,0.53975 -0.0926,0.29369 -0.383646,0.55298 -0.867833,0.7329 -0.645584,0.23812 -1.381125,0.35719 -1.852084,0.40481 z m 2.492375,1.99496 c -0.243416,0.09 -0.515937,0.13229 -0.889,0.13229 -0.777875,0 -1.317625,-0.39158 -1.518708,-1.10596 v -0.005 h 0.0053 c 0.629708,-0.0847 1.783291,-0.18521 2.751666,-0.70908 0.470959,-0.25665 0.817563,-0.55298 0.976313,-0.98161 0.124354,-0.33602 0.177271,-0.7567 0.07144,-1.14035 -0.142875,-0.51858 -0.386291,-0.82021 -0.762,-1.07156 -0.425979,-0.28575 -1.016,-0.38365 -1.709208,-0.38365 -0.420687,0 -0.804333,0.0741 -1.135062,0.21696 -0.325438,0.14023 -0.611188,0.35719 -0.836084,0.635 -0.227541,0.27517 -0.399521,0.61913 -0.515937,1.016 -0.116417,0.40217 -0.177271,0.86254 -0.177271,1.37054 0,1.13242 0.275167,1.98438 0.822854,2.53206 0.47625,0.4789 1.150938,0.71967 2.002896,0.72232 0.53975,0 0.968375,-0.0794 1.349375,-0.25136 0.338667,-0.15081 0.650875,-0.37835 1.002771,-0.73554 l -0.748771,-0.70908 c -0.224896,0.22754 -0.4445,0.37571 -0.690563,0.46831 m -13.530791,-2.5744 -0.989542,-0.0873 c -0.66675,-0.0635 -0.865187,-0.34925 -0.865187,-0.7276 0,-0.47625 0.383646,-0.81227 1.137708,-0.81227 0.592667,0 1.148292,0.12435 1.545167,0.46302 l 0.796396,-0.81227 c -0.582084,-0.51329 -1.386417,-0.71173 -2.325688,-0.71173 -1.309687,0 -2.360083,0.70114 -2.362729,1.93675 0,1.11389 0.679979,1.651 1.854729,1.75154 l 1.002771,0.0873 c 0.605896,0.0503 0.841375,0.32544 0.841375,0.75142 0,0.59796 -0.605896,0.87312 -1.373188,0.87577 -0.619125,0 -1.296458,-0.13758 -1.807104,-0.6641 l -0.8255,0.83872 c 0.740834,0.73819 1.606021,0.91282 2.632604,0.91282 1.494896,0 2.608792,-0.68792 2.608792,-2.01348 0,-1.12448 -0.693208,-1.68804 -1.867958,-1.78859 m -33.382479,13.98853 c -0.0026,0.44979 -0.423333,0.93927 -1.180042,0.93927 -1.026583,0 -1.595437,-0.67998 -1.595437,-1.75684 v -0.87577 c 0.01323,-0.38364 0.03704,-0.56885 0.161396,-0.8546 0.198437,-0.46831 0.714375,-0.70379 1.254125,-0.70115 0.772583,0 1.359958,0.24871 1.359958,0.90223 0.0026,0.58738 0.0026,1.75948 0,2.34686 m 0,-4.13809 c -0.359833,-0.15875 -0.812271,-0.24871 -1.36525,-0.25135 -1.817688,0 -2.659063,1.17475 -2.656417,3.20146 0,2.38654 1.248834,3.21468 2.817813,3.21468 0.584729,0 1.029229,-0.19843 1.412875,-0.47889 l 1.053041,0.47889 v -8.86354 h -1.262062 z m 12.84552081,4.32594 v -7.02469 h -1.26206248 v 7.09613 c 0,0.92868 0.51858333,1.73302 1.71979165,1.73302 H 3.5049714 V 343.355 H 1.0390548 c -0.50800002,0 -0.67997919,-0.24871 -0.67997919,-0.7329 M 8.8416172,342.548 v -6.94796 H 7.5822005 v 7.02469 c 0,0.96837 0.5027084,1.8071 1.7541875,1.8071 h 0.669396 V 343.31 H 9.5533463 c -0.5291666,0 -0.7090833,-0.25929 -0.7117291,-0.762 m 3.5665828,0 v -6.94796 h -1.259416 v 7.02469 c 0,0.96837 0.502708,1.8071 1.754187,1.8071 h 0.669396 V 343.31 H 13.11993 c -0.529167,0 -0.709084,-0.25929 -0.71173,-0.762 m 22.394334,-19.54212 -2.878667,1.31233 v 1.10331 l 2.878667,-1.31498 z"
         inkscape:connector-curvature="0"
         style="fill:#000000;stroke-width:0.26458332" />
    </g>
  </g>
</svg>
